<svg width="1280" height="720" viewBox="0 0 1280 720" fill="none" xmlns="http://www.w3.org/2000/svg" role="img" aria-labelledby="title desc">
  <title id="title">Waxis AI Control Plane dashboard</title>
  <desc id="desc">A black and white dashboard illustration showing routing, policy, traces, cost, and approvals.</desc>
  <style>
    .bg{fill:#fff}.ink{fill:#111}.muted{fill:#666}.line{stroke:#111;stroke-width:1.4}.soft{stroke:#cfcfcf;stroke-width:1}.panel{fill:#fff;stroke:#111;stroke-width:1.4}.sub{fill:#f7f7f7;stroke:#d8d8d8}.title{font:600 24px Inter,Arial,sans-serif;fill:#111}.h{font:600 15px Inter,Arial,sans-serif;fill:#111}.t{font:500 12px Inter,Arial,sans-serif;fill:#555}.xs{font:500 10px Inter,Arial,sans-serif;fill:#777}
  </style>
  <rect class="bg" width="1280" height="720"/>
  <rect x="70" y="58" width="1140" height="604" rx="26" class="panel"/>
  <rect x="70" y="58" width="1140" height="58" rx="26" class="sub"/>
  <path d="M70 94H1210" class="soft"/>
  <circle cx="104" cy="86" r="7" fill="#111"/><circle cx="128" cy="86" r="7" fill="#777"/><circle cx="152" cy="86" r="7" fill="#d0d0d0"/>
  <text x="188" y="93" class="title">Waxis AI Control Plane</text>
  <rect x="98" y="146" width="188" height="480" rx="18" class="sub"/>
  <text x="124" y="184" class="h">Platform</text>
  <rect x="124" y="216" width="132" height="14" rx="7" fill="#111"/>
  <rect x="124" y="256" width="98" height="10" rx="5" fill="#777"/>
  <rect x="124" y="294" width="116" height="10" rx="5" fill="#777"/>
  <rect x="124" y="332" width="86" height="10" rx="5" fill="#777"/>
  <rect x="124" y="394" width="132" height="52" rx="12" fill="#fff" stroke="#d8d8d8"/>
  <text x="142" y="424" class="t">Gateway</text>
  <rect x="124" y="462" width="132" height="52" rx="12" fill="#fff" stroke="#d8d8d8"/>
  <text x="142" y="492" class="t">Policies</text>
  <rect x="124" y="530" width="132" height="52" rx="12" fill="#fff" stroke="#d8d8d8"/>
  <text x="142" y="560" class="t">Evals</text>
  <rect x="318" y="146" width="350" height="238" rx="18" class="panel"/>
  <text x="344" y="181" class="h">Model Routing</text>
  <circle cx="382" cy="260" r="30" fill="#fff" stroke="#111" stroke-width="1.5"/>
  <circle cx="548" cy="210" r="24" fill="#f7f7f7" stroke="#111" stroke-width="1.4"/>
  <circle cx="548" cy="264" r="24" fill="#f7f7f7" stroke="#111" stroke-width="1.4"/>
  <circle cx="548" cy="318" r="24" fill="#f7f7f7" stroke="#111" stroke-width="1.4"/>
  <path d="M412 252C454 228 486 214 524 211M413 260H524M412 268C454 292 486 312 524 317" class="line"/>
  <text x="356" y="356" class="xs">workflow request</text>
  <text x="502" y="356" class="xs">provider policy</text>
  <rect x="702" y="146" width="210" height="110" rx="18" class="panel"/>
  <text x="728" y="181" class="h">Provider Health</text>
  <path d="M732 220H880" class="soft"/><path d="M732 220H840" class="line"/>
  <rect x="702" y="274" width="210" height="110" rx="18" class="panel"/>
  <text x="728" y="309" class="h">Spend Today</text>
  <rect x="732" y="332" width="132" height="14" rx="7" fill="#111"/>
  <rect x="930" y="146" width="230" height="238" rx="18" class="panel"/>
  <text x="956" y="181" class="h">Approval Queue</text>
  <rect x="956" y="210" width="178" height="42" rx="10" class="sub"/>
  <rect x="956" y="268" width="178" height="42" rx="10" class="sub"/>
  <rect x="956" y="326" width="178" height="42" rx="10" class="sub"/>
  <rect x="318" y="414" width="520" height="190" rx="18" class="panel"/>
  <text x="344" y="449" class="h">Trace Timeline</text>
  <path d="M354 510H790" class="soft"/>
  <circle cx="390" cy="510" r="10" fill="#111"/><circle cx="500" cy="510" r="10" fill="#fff" stroke="#111"/><circle cx="610" cy="510" r="10" fill="#fff" stroke="#111"/><circle cx="720" cy="510" r="10" fill="#fff" stroke="#111"/>
  <rect x="368" y="548" width="342" height="12" rx="6" fill="#d8d8d8"/>
  <rect x="368" y="572" width="210" height="10" rx="5" fill="#efefef"/>
  <rect x="868" y="414" width="292" height="190" rx="18" class="panel"/>
  <text x="894" y="449" class="h">Evaluation Status</text>
  <path d="M904 552L948 518L1004 538L1060 478L1124 506" class="line"/>
  <path d="M904 552H1128M904 500H1128" class="soft"/>
</svg>

