<svg xmlns="http://www.w3.org/2000/svg" width="1280" height="720" viewBox="0 0 1280 720">
<defs><marker id="arrow" markerWidth="10" markerHeight="10" refX="8" refY="3" orient="auto" markerUnits="strokeWidth"><path d="M0,0 L0,6 L8,3 z" fill="#111"/></marker><style>
  .frame{fill:#fff;stroke:#111;stroke-width:2.2}
  .top{fill:#f8f8f8;stroke:#d9d9d9;stroke-width:1.4}
  .panel{fill:#fff;stroke:#111;stroke-width:1.7}
  .soft{fill:#f7f7f7;stroke:#d9d9d9;stroke-width:1.2}
  .thin{fill:#fff;stroke:#cfcfcf;stroke-width:1.2}
  .black{fill:#111;stroke:#111;stroke-width:1.5}
  .ink{fill:#111}
  .muted{fill:#666}
  .line{stroke:#111;stroke-width:1.8;fill:none;stroke-linecap:round;stroke-linejoin:round}
  .softline{stroke:#bdbdbd;stroke-width:1.4;fill:none;stroke-linecap:round;stroke-linejoin:round}
  .dash{stroke:#999;stroke-width:1.3;fill:none;stroke-dasharray:6 6}
  .title{font:700 27px -apple-system,BlinkMacSystemFont,"Segoe UI",Arial,sans-serif;fill:#111}
  .sub{font:500 13px -apple-system,BlinkMacSystemFont,"Segoe UI",Arial,sans-serif;fill:#666}
  .h{font:700 18px -apple-system,BlinkMacSystemFont,"Segoe UI",Arial,sans-serif;fill:#111}
  .m{font:650 15px -apple-system,BlinkMacSystemFont,"Segoe UI",Arial,sans-serif;fill:#111}
  .xs{font:600 12.5px -apple-system,BlinkMacSystemFont,"Segoe UI",Arial,sans-serif;fill:#666}
  .tiny{font:600 10.5px -apple-system,BlinkMacSystemFont,"Segoe UI",Arial,sans-serif;fill:#777}
  .white{font:700 12px -apple-system,BlinkMacSystemFont,"Segoe UI",Arial,sans-serif;fill:#fff}
</style></defs>
<rect width="1280" height="720" fill="#fff"/>
<rect x="32" y="32" width="1216" height="656" rx="24" class="frame"/>
<rect x="32" y="32" width="1216" height="70" rx="24" class="top"/>
<path d="M32 78 H1248" class="softline"/>
<circle cx="62" cy="66" r="7" fill="#111"/><circle cx="86" cy="66" r="7" fill="#8f8f8f"/><circle cx="110" cy="66" r="7" fill="#d0d0d0"/>
<text x="152" y="62" class="title">Waxis AI Control Plane</text><text x="152" y="84" class="sub">Governed AI model gateway architecture with routing, controls, and observability.</text>
<rect x="82" y="146" width="196" height="420" rx="18" class="soft"/><text x="112" y="184" class="h">Applications</text><rect x="112" y="216" width="136" height="30" rx="15.0" class="thin"/><text x="180.0" y="235.0" class="xs" text-anchor="middle">Internal copilots</text><rect x="112" y="272" width="136" height="30" rx="15.0" class="black"/><text x="180.0" y="291.0" class="white" text-anchor="middle">Business agents</text><rect x="112" y="328" width="136" height="30" rx="15.0" class="thin"/><text x="180.0" y="347.0" class="xs" text-anchor="middle">Backend services</text><rect x="112" y="384" width="136" height="30" rx="15.0" class="thin"/><text x="180.0" y="403.0" class="xs" text-anchor="middle">Batch jobs</text><rect x="112" y="440" width="136" height="30" rx="15.0" class="thin"/><text x="180.0" y="459.0" class="xs" text-anchor="middle">Admin console</text><rect x="386" y="130" width="438" height="458" rx="26" class="panel"/><text x="420" y="170" class="h">Control Plane Core</text><text x="420" y="194" class="sub">A governed AI server layer between apps, tools, and models.</text><rect x="430" y="234" width="146" height="54" rx="12" class="thin"/><text x="503" y="267" class="xs" text-anchor="middle">Policy Engine</text><rect x="626" y="234" width="146" height="54" rx="12" class="thin"/><text x="699" y="267" class="xs" text-anchor="middle">Router</text><rect x="430" y="318" width="146" height="54" rx="12" class="thin"/><text x="503" y="351" class="xs" text-anchor="middle">Guardrail Runtime</text><rect x="626" y="318" width="146" height="54" rx="12" class="thin"/><text x="699" y="351" class="xs" text-anchor="middle">Tool Registry</text><rect x="430" y="402" width="146" height="54" rx="12" class="thin"/><text x="503" y="435" class="xs" text-anchor="middle">Eval Registry</text><rect x="626" y="402" width="146" height="54" rx="12" class="thin"/><text x="699" y="435" class="xs" text-anchor="middle">Trace Store</text><rect x="430" y="486" width="146" height="54" rx="12" class="thin"/><text x="503" y="519" class="xs" text-anchor="middle">Cost Governor</text><rect x="626" y="486" width="146" height="54" rx="12" class="thin"/><text x="699" y="519" class="xs" text-anchor="middle">Release Gates</text><path d="M576 260 L626 260" class="line" marker-end="url(#arrow)"/><path d="M576 344 L626 344" class="line" marker-end="url(#arrow)"/><path d="M576 428 L626 428" class="line" marker-end="url(#arrow)"/><path d="M576 512 L626 512" class="line" marker-end="url(#arrow)"/><path d="M278 248 L386 348" class="softline" marker-end="url(#arrow)"/><path d="M278 304 L386 348" class="softline" marker-end="url(#arrow)"/><path d="M278 360 L386 348" class="softline" marker-end="url(#arrow)"/><path d="M278 416 L386 348" class="softline" marker-end="url(#arrow)"/><path d="M278 472 L386 348" class="softline" marker-end="url(#arrow)"/><rect x="934" y="146" width="240" height="420" rx="18" class="soft"/><text x="966" y="184" class="h">Adapters + Outputs</text><rect x="966" y="216" width="156" height="28" rx="14.0" class="thin"/><text x="1044.0" y="234.0" class="xs" text-anchor="middle">OpenAI / Claude</text><rect x="966" y="264" width="156" height="28" rx="14.0" class="thin"/><text x="1044.0" y="282.0" class="xs" text-anchor="middle">Bedrock / Azure</text><rect x="966" y="312" width="156" height="28" rx="14.0" class="thin"/><text x="1044.0" y="330.0" class="xs" text-anchor="middle">Private model</text><rect x="966" y="360" width="156" height="28" rx="14.0" class="black"/><text x="1044.0" y="378.0" class="white" text-anchor="middle">Tool execution</text><rect x="966" y="408" width="156" height="28" rx="14.0" class="thin"/><text x="1044.0" y="426.0" class="xs" text-anchor="middle">Audit export</text><rect x="966" y="456" width="156" height="28" rx="14.0" class="thin"/><text x="1044.0" y="474.0" class="xs" text-anchor="middle">SIEM / BI logs</text><path d="M824 348 L934 248" class="softline" marker-end="url(#arrow)"/><path d="M824 348 L934 318" class="softline" marker-end="url(#arrow)"/><path d="M824 348 L934 388" class="softline" marker-end="url(#arrow)"/><path d="M824 348 L934 458" class="softline" marker-end="url(#arrow)"/><path d="M824 348 L934 528" class="softline" marker-end="url(#arrow)"/><rect x="190" y="606" width="900" height="42" rx="21" class="panel"/><text x="226" y="633" class="m">Governance bus: tenant RBAC / data residency / retention / approval policy / immutable audit log</text><path d="M622 588 L622 606" class="line" marker-end="url(#arrow)"/>
</svg>