<svg xmlns="http://www.w3.org/2000/svg" width="1280" height="720" viewBox="0 0 1280 720">
<defs><marker id="arrow" markerWidth="10" markerHeight="10" refX="8" refY="3" orient="auto" markerUnits="strokeWidth"><path d="M0,0 L0,6 L8,3 z" fill="#111"/></marker><style>
  .frame{fill:#fff;stroke:#111;stroke-width:2.2}
  .top{fill:#f8f8f8;stroke:#d9d9d9;stroke-width:1.4}
  .panel{fill:#fff;stroke:#111;stroke-width:1.7}
  .soft{fill:#f7f7f7;stroke:#d9d9d9;stroke-width:1.2}
  .thin{fill:#fff;stroke:#cfcfcf;stroke-width:1.2}
  .black{fill:#111;stroke:#111;stroke-width:1.5}
  .ink{fill:#111}
  .muted{fill:#666}
  .line{stroke:#111;stroke-width:1.8;fill:none;stroke-linecap:round;stroke-linejoin:round}
  .softline{stroke:#bdbdbd;stroke-width:1.4;fill:none;stroke-linecap:round;stroke-linejoin:round}
  .dash{stroke:#999;stroke-width:1.3;fill:none;stroke-dasharray:6 6}
  .title{font:700 27px -apple-system,BlinkMacSystemFont,"Segoe UI",Arial,sans-serif;fill:#111}
  .sub{font:500 13px -apple-system,BlinkMacSystemFont,"Segoe UI",Arial,sans-serif;fill:#666}
  .h{font:700 18px -apple-system,BlinkMacSystemFont,"Segoe UI",Arial,sans-serif;fill:#111}
  .m{font:650 15px -apple-system,BlinkMacSystemFont,"Segoe UI",Arial,sans-serif;fill:#111}
  .xs{font:600 12.5px -apple-system,BlinkMacSystemFont,"Segoe UI",Arial,sans-serif;fill:#666}
  .tiny{font:600 10.5px -apple-system,BlinkMacSystemFont,"Segoe UI",Arial,sans-serif;fill:#777}
  .white{font:700 12px -apple-system,BlinkMacSystemFont,"Segoe UI",Arial,sans-serif;fill:#fff}
</style></defs>
<rect width="1280" height="720" fill="#fff"/>
<rect x="32" y="32" width="1216" height="656" rx="24" class="frame"/>
<rect x="32" y="32" width="1216" height="70" rx="24" class="top"/>
<path d="M32 78 H1248" class="softline"/>
<circle cx="62" cy="66" r="7" fill="#111"/><circle cx="86" cy="66" r="7" fill="#8f8f8f"/><circle cx="110" cy="66" r="7" fill="#d0d0d0"/>
<text x="152" y="62" class="title">Waxis AI Control Plane</text><text x="152" y="84" class="sub">Governed model gateway, routing, policies, approvals, traces, and evals.</text>
<text x="76" y="138" class="h">Request Intake</text><text x="76" y="160" class="sub">Every call enters with tenant, data class, and workflow intent.</text><rect x="76" y="188" width="142" height="30" rx="15.0" class="thin"/><text x="147.0" y="207.0" class="xs" text-anchor="middle">Sales app</text><path d="M218 203 L286 266" class="softline" marker-end="url(#arrow)"/><rect x="76" y="236" width="142" height="30" rx="15.0" class="thin"/><text x="147.0" y="255.0" class="xs" text-anchor="middle">Ops portal</text><path d="M218 251 L286 266" class="softline" marker-end="url(#arrow)"/><rect x="76" y="284" width="142" height="30" rx="15.0" class="black"/><text x="147.0" y="303.0" class="white" text-anchor="middle">Agent API</text><path d="M218 299 L286 266" class="softline" marker-end="url(#arrow)"/><rect x="76" y="332" width="142" height="30" rx="15.0" class="thin"/><text x="147.0" y="351.0" class="xs" text-anchor="middle">Batch job</text><path d="M218 347 L286 266" class="softline" marker-end="url(#arrow)"/><rect x="286" y="186" width="260" height="194" rx="18" class="panel"/><text x="316" y="220" class="h">Policy Router</text><text x="316" y="244" class="xs">Decision matrix</text><text x="316" y="266" class="tiny">Data class</text><text x="438" y="266" class="tiny">customer / internal</text><text x="316" y="288" class="tiny">Tool risk</text><text x="438" y="288" class="tiny">write action</text><text x="316" y="310" class="tiny">Tenant</text><text x="438" y="310" class="tiny">acme-prod</text><rect x="318" y="334" width="194" height="26" rx="13.0" class="black"/><text x="415.0" y="351.0" class="white" text-anchor="middle">route with policy bundle</text><rect x="612" y="142" width="268" height="244" rx="18" class="panel"/><text x="638" y="176" class="h">Model + Tool Fanout</text><text x="638" y="210" class="xs">OpenAI primary</text><rect x="780" y="198" width="72" height="8" rx="4" class="thin"/><rect x="780" y="198" width="69.0" height="8" rx="4" fill="#111"/><text x="638" y="252" class="xs">Claude fallback</text><rect x="780" y="240" width="72" height="8" rx="4" class="thin"/><rect x="780" y="240" width="56.0" height="8" rx="4" fill="#111"/><text x="638" y="294" class="xs">Bedrock region lock</text><rect x="780" y="282" width="72" height="8" rx="4" class="thin"/><rect x="780" y="282" width="47.0" height="8" rx="4" fill="#111"/><text x="638" y="336" class="xs">Local redaction model</text><rect x="780" y="324" width="72" height="8" rx="4" class="thin"/><rect x="780" y="324" width="77.0" height="8" rx="4" fill="#111"/><path d="M546 272 L612 246" class="line" marker-end="url(#arrow)"/><path d="M546 272 L612 288" class="line" marker-end="url(#arrow)"/><path d="M546 272 L612 330" class="line" marker-end="url(#arrow)"/><rect x="928" y="150" width="244" height="110" rx="18" class="panel"/><text x="954" y="184" class="h">Human Approval Branch</text><rect x="954" y="210" width="164" height="28" rx="14.0" class="black"/><text x="1036.0" y="228.0" class="white" text-anchor="middle">high-risk tool call</text><text x="954" y="247" class="tiny">Approve / revise / reject before execution</text><path d="M880 246 L928 205" class="line" marker-end="url(#arrow)"/><rect x="928" y="296" width="244" height="90" rx="18" class="soft"/><text x="954" y="330" class="h">Fallback Behavior</text><text x="954" y="356" class="tiny">safe response, cached answer, or queue</text><path d="M880 330 L928 340" class="line" marker-end="url(#arrow)"/><rect x="76" y="424" width="1096" height="170" rx="18" class="panel"/><text x="104" y="458" class="h">Trace, Guardrail, and Eval Replay</text><circle cx="124" cy="510" r="9" class="black"/><path d="M136 510 L236 510" class="softline" marker-end="url(#arrow)"/><text x="124" y="540" class="tiny" text-anchor="middle">request</text><circle cx="254" cy="510" r="9" class="thin"/><path d="M266 510 L366 510" class="softline" marker-end="url(#arrow)"/><text x="254" y="540" class="tiny" text-anchor="middle">classify</text><circle cx="384" cy="510" r="9" class="black"/><path d="M396 510 L496 510" class="softline" marker-end="url(#arrow)"/><text x="384" y="540" class="tiny" text-anchor="middle">policy</text><circle cx="514" cy="510" r="9" class="thin"/><path d="M526 510 L626 510" class="softline" marker-end="url(#arrow)"/><text x="514" y="540" class="tiny" text-anchor="middle">route</text><circle cx="644" cy="510" r="9" class="black"/><path d="M656 510 L756 510" class="softline" marker-end="url(#arrow)"/><text x="644" y="540" class="tiny" text-anchor="middle">guardrail</text><circle cx="774" cy="510" r="9" class="thin"/><path d="M786 510 L886 510" class="softline" marker-end="url(#arrow)"/><text x="774" y="540" class="tiny" text-anchor="middle">tool</text><circle cx="904" cy="510" r="9" class="thin"/><path d="M916 510 L1016 510" class="softline" marker-end="url(#arrow)"/><text x="904" y="540" class="tiny" text-anchor="middle">response</text><circle cx="1034" cy="510" r="9" class="black"/><text x="1034" y="540" class="tiny" text-anchor="middle">eval</text><rect x="420" y="558" width="102" height="24" rx="12.0" class="thin"/><text x="471.0" y="574.0" class="tiny" text-anchor="middle">PII redaction</text><rect x="538" y="558" width="102" height="24" rx="12.0" class="thin"/><text x="589.0" y="574.0" class="tiny" text-anchor="middle">prompt injection</text><rect x="656" y="558" width="102" height="24" rx="12.0" class="black"/><text x="707.0" y="574.0" class="white" text-anchor="middle">RBAC</text><rect x="774" y="558" width="102" height="24" rx="12.0" class="thin"/><text x="825.0" y="574.0" class="tiny" text-anchor="middle">budget</text><rect x="892" y="558" width="102" height="24" rx="12.0" class="thin"/><text x="943.0" y="574.0" class="tiny" text-anchor="middle">golden set</text><rect x="76" y="616" width="1096" height="34" rx="17" class="soft"/><text x="104" y="638" class="tiny">Audit record: prompt hash, route reason, provider health, approval state, token cost, latency, eval outcome.</text>
</svg>